<svg xmlns="http://www.w3.org/2000/svg" xmlns:xlink="http://www.w3.org/1999/xlink" width="500" zoomAndPan="magnify" viewBox="0 0 375 374.999991" height="500" preserveAspectRatio="xMidYMid meet" version="1.0"><defs><clipPath id="aa52d037bb"><path d="M 112.5 112.5 L 157 112.5 L 157 175 L 112.5 175 Z M 112.5 112.5 " clip-rule="nonzero"/></clipPath><clipPath id="26bdec20a7"><path d="M 143 168 L 225 168 L 225 262.5 L 143 262.5 Z M 143 168 " clip-rule="nonzero"/></clipPath><clipPath id="8ed46c4d34"><path d="M 206 175 L 262.5 175 L 262.5 262.5 L 206 262.5 Z M 206 175 " clip-rule="nonzero"/></clipPath></defs><rect x="-37.5" width="450" fill="#ffffff" y="-37.499999" height="449.999989" fill-opacity="1"/><rect x="-37.5" width="450" fill="#ffffff" y="-37.499999" height="449.999989" fill-opacity="1"/><rect x="-37.5" width="450" fill="#ffffff" y="-37.499999" height="449.999989" fill-opacity="1"/><g clip-path="url(#aa52d037bb)"><path fill="#ffffff" d="M 134.375 112.5 C 122.3125 112.5 112.5 122.3125 112.5 134.375 C 112.5 145.386719 129.824219 170.792969 131.800781 173.648438 C 132.386719 174.492188 133.351562 175 134.375 175 C 135.398438 175 136.363281 174.492188 136.949219 173.648438 C 138.925781 170.789062 156.25 145.386719 156.25 134.375 C 156.25 122.3125 146.4375 112.5 134.375 112.5 Z M 134.375 143.75 C 129.199219 143.75 125 139.550781 125 134.375 C 125 129.199219 129.199219 125 134.375 125 C 139.550781 125 143.75 129.199219 143.75 134.375 C 143.75 139.550781 139.550781 143.75 134.375 143.75 Z M 134.375 143.75 " fill-opacity="1" fill-rule="nonzero"/></g><g clip-path="url(#26bdec20a7)"><path fill="#ffffff" d="M 221.875 262.5 C 217.113281 262.5 212.742188 262.105469 208.886719 261.324219 C 207.195312 260.980469 206.105469 259.332031 206.445312 257.636719 C 206.789062 255.945312 208.40625 254.867188 210.132812 255.195312 C 213.582031 255.894531 217.53125 256.25 221.875 256.25 C 223.601562 256.25 225 257.648438 225 259.375 C 225 261.101562 223.601562 262.5 221.875 262.5 Z M 197.992188 256.960938 C 197.417969 256.960938 196.835938 256.804688 196.3125 256.46875 C 192.335938 253.929688 189.242188 250.648438 186.855469 246.449219 C 186 244.949219 186.53125 243.042969 188.03125 242.1875 C 189.53125 241.332031 191.4375 241.863281 192.292969 243.363281 C 194.167969 246.664062 196.582031 249.226562 199.679688 251.199219 C 201.136719 252.125 201.5625 254.0625 200.632812 255.511719 C 200.039062 256.449219 199.023438 256.960938 197.992188 256.960938 Z M 185.445312 236.304688 C 183.988281 236.304688 182.6875 235.28125 182.386719 233.804688 C 181.476562 229.332031 181.03125 224.617188 180.742188 221.019531 C 180.605469 219.300781 181.894531 217.792969 183.613281 217.65625 C 185.324219 217.507812 186.835938 218.804688 186.976562 220.523438 C 187.242188 223.949219 187.667969 228.414062 188.511719 232.5625 C 188.855469 234.257812 187.761719 235.90625 186.074219 236.242188 C 185.863281 236.289062 185.65625 236.304688 185.445312 236.304688 Z M 182.960938 211.398438 C 181.355469 211.398438 179.988281 210.167969 179.851562 208.539062 C 179.425781 203.519531 178.914062 199.832031 178.167969 196.582031 C 177.78125 194.898438 178.835938 193.226562 180.519531 192.835938 C 182.179688 192.445312 183.875 193.507812 184.261719 195.195312 C 185.070312 198.738281 185.625 202.695312 186.074219 208.007812 C 186.21875 209.726562 184.945312 211.238281 183.226562 211.382812 C 183.136719 211.394531 183.050781 211.398438 182.960938 211.398438 Z M 176.664062 187.488281 C 175.636719 187.488281 174.632812 186.980469 174.039062 186.054688 C 172.039062 182.960938 169.460938 180.605469 166.164062 178.851562 C 164.636719 178.039062 164.0625 176.144531 164.867188 174.625 C 165.679688 173.105469 167.574219 172.53125 169.09375 173.332031 C 173.292969 175.570312 176.726562 178.707031 179.28125 182.664062 C 180.21875 184.105469 179.800781 186.042969 178.355469 186.980469 C 177.832031 187.324219 177.242188 187.488281 176.664062 187.488281 Z M 155.832031 175.585938 C 155.6875 175.585938 155.539062 175.582031 155.382812 175.554688 C 152.789062 175.179688 149.84375 175.074219 146.882812 175 C 145.15625 175 143.757812 173.601562 143.757812 171.875 C 143.757812 170.125 145.230469 168.613281 146.949219 168.75 C 150.269531 168.75 153.40625 168.957031 156.273438 169.367188 C 157.980469 169.617188 159.167969 171.199219 158.925781 172.90625 C 158.695312 174.46875 157.355469 175.585938 155.832031 175.585938 Z M 155.832031 175.585938 " fill-opacity="1" fill-rule="nonzero"/></g><g clip-path="url(#8ed46c4d34)"><path fill="#ffffff" d="M 234.375 175 C 218.867188 175 206.25 187.617188 206.25 203.125 C 206.25 217.367188 229.082031 256.542969 231.679688 260.960938 C 232.242188 261.914062 233.261719 262.5 234.375 262.5 C 235.488281 262.5 236.507812 261.914062 237.070312 260.960938 C 239.675781 256.542969 262.5 217.367188 262.5 203.125 C 262.5 187.617188 249.882812 175 234.375 175 Z M 234.375 218.75 C 225.757812 218.75 218.75 211.742188 218.75 203.125 C 218.75 194.507812 225.757812 187.5 234.375 187.5 C 242.992188 187.5 250 194.507812 250 203.125 C 250 211.742188 242.992188 218.75 234.375 218.75 Z M 234.375 218.75 " fill-opacity="1" fill-rule="nonzero"/></g></svg>